<svg width="241" height="82" viewBox="0 0 241 82" fill="none" xmlns="http://www.w3.org/2000/svg">
<g clip-path="url(#clip0_514_1761)">
<path fill-rule="evenodd" clip-rule="evenodd" d="M78.605 51.0435H73.3216V25.3406H90.8798V30.1566H78.6003V35.5888H90.6178V40.4049H78.6003V51.0435H78.605ZM110.343 51.0435H94.5674V25.3406H99.8508V46.2274H110.343V51.0435ZM124.667 51.5044C120.924 51.5044 117.826 50.2533 115.383 47.7465C112.94 45.2398 111.719 42.0604 111.719 38.2085C111.719 34.3566 112.94 31.1772 115.383 28.6704C117.826 26.1636 120.919 24.9126 124.667 24.9126C128.439 24.9126 131.542 26.1589 133.989 28.6516C136.432 31.1443 137.653 34.3284 137.653 38.2085C137.653 42.0886 136.432 45.2727 133.989 47.7654C131.542 50.258 128.434 51.5044 124.667 51.5044ZM119.215 44.2615C120.591 45.8559 122.407 46.6507 124.667 46.6507C126.923 46.6507 128.748 45.8559 130.138 44.2615C131.528 42.6671 132.22 40.6494 132.22 38.2085C132.22 35.7675 131.528 33.7499 130.138 32.1602C128.748 30.5658 126.928 29.771 124.667 29.771C122.412 29.771 120.591 30.5658 119.215 32.1602C117.84 33.7546 117.152 35.7722 117.152 38.2085C117.152 40.6494 117.84 42.6671 119.215 44.2615ZM163.584 51.0435H158.488L146.657 34.2813V51.0435H141.374V25.3406H146.807L158.305 41.4866V25.3406H163.588V51.0435H163.584ZM173.776 51.0435H168.493V25.3406H173.776V51.0435Z" fill="black"/>
<path fill-rule="evenodd" clip-rule="evenodd" d="M198.527 40.9554L191.479 47.9961L190.169 49.36L171.268 69.0898H152.675L229.39 8.55518L198.55 40.9319L198.527 40.9554Z" fill="black"/>
<path d="M32.318 69.4893C48.6703 69.4893 61.9265 55.7581 61.9265 38.8198C61.9265 21.8816 48.6703 8.15039 32.318 8.15039C15.9657 8.15039 2.70953 21.8816 2.70953 38.8198C2.70953 55.7581 15.9657 69.4893 32.318 69.4893Z" fill="black"/>
<path fill-rule="evenodd" clip-rule="evenodd" d="M46.3337 20.4448V26.7283H30.3151L23.4219 38.1429V38.1147L18.9481 45.5551L23.4219 32.7907L25.1862 27.763L23.4219 29.7195V20.4448H46.3337Z" fill="white"/>
<path fill-rule="evenodd" clip-rule="evenodd" d="M43.6289 36.144V42.4275H30.3151V56.3066H23.4219V51.9185L32.9919 36.144H43.6289Z" fill="white"/>
<path fill-rule="evenodd" clip-rule="evenodd" d="M32.318 5.74725C14.713 5.74725 0.388415 20.5858 0.388415 38.82C0.388415 56.9273 14.713 71.7658 32.318 71.8928C32.3976 71.8928 32.4725 71.8928 32.552 71.8928C50.1898 71.8928 64.0932 57.4117 64.243 38.8153C64.3131 30.0721 61.0608 21.818 55.0848 15.5722C49.0246 9.23701 40.938 5.74725 32.318 5.74725ZM32.552 72.302C32.4725 72.302 32.3976 72.302 32.318 72.302C23.6699 72.2408 15.5553 68.7417 9.46704 62.4488C3.36003 56.1371 0 47.7514 0 38.82C0 29.8793 3.36003 21.47 9.46704 15.1489C15.5694 8.82783 23.6887 5.34277 32.3227 5.34277C36.7216 5.34277 40.9895 6.24108 45.0141 8.01418C48.9029 9.72614 52.3893 12.1765 55.3702 15.29C61.4258 21.6158 64.7156 29.9733 64.6454 38.8247C64.5705 47.9113 61.1777 56.3817 55.0988 62.6652C49.076 68.8828 41.0784 72.302 32.552 72.302Z" fill="#0096EA"/>
<path fill-rule="evenodd" clip-rule="evenodd" d="M198.967 43.6455L202.991 51.0201H192.949L192.504 50.103L198.967 43.6455Z" fill="#0096EA"/>
<path fill-rule="evenodd" clip-rule="evenodd" d="M186.865 39.2102L193.702 33.8251L189.294 25.3452H179.532L186.865 39.2102Z" fill="#0096EA"/>
<path fill-rule="evenodd" clip-rule="evenodd" d="M76.0264 63.2201H75.2543V57.4916H73.2888V56.7767H78.006V57.4916H76.0311V63.2201H76.0264ZM85.1425 63.2201H81.0665V56.7767H85.1425V57.4916H81.8433V59.5657H85.077V60.2806H81.8433V62.5005H85.1425V63.2201ZM91.3618 63.3377C90.454 63.3377 89.6959 63.0273 89.0828 62.4065C88.4698 61.7856 88.1656 60.9861 88.1656 60.0078C88.1656 59.0296 88.4698 58.23 89.0828 57.6092C89.6959 56.9884 90.454 56.678 91.3618 56.678C92.3586 56.678 93.1401 57.1013 93.7204 57.9525L93.0699 58.3288C92.8874 58.0513 92.6487 57.8256 92.3446 57.6515C92.0404 57.4775 91.7128 57.3929 91.3665 57.3929C90.6833 57.3929 90.1123 57.6374 89.6537 58.1313C89.1951 58.6251 88.9705 59.2506 88.9705 60.0078C88.9705 60.7697 89.1998 61.3953 89.6537 61.8844C90.1123 62.3782 90.6786 62.6228 91.3665 62.6228C91.7128 62.6228 92.0404 62.5381 92.3446 62.3688C92.6487 62.1995 92.8921 61.9691 93.0699 61.6869L93.7298 62.0631C93.1261 62.9097 92.3352 63.3377 91.3618 63.3377ZM101.943 63.2201H101.17V60.2665H97.5344V63.2201H96.7622V56.7767H97.5344V59.5469H101.17V56.7767H101.943V63.2201ZM110.586 63.2201H109.842L106.215 58.0842V63.2201H105.443V56.7767H106.229L109.809 61.8091V56.7767H110.581V63.2201H110.586ZM116.918 63.3377C116.005 63.3377 115.261 63.0226 114.69 62.3923C114.119 61.7621 113.834 60.9673 113.834 60.0078C113.834 59.0484 114.119 58.2535 114.69 57.6233C115.261 56.9931 116.005 56.678 116.918 56.678C117.826 56.678 118.565 56.9931 119.141 57.6233C119.716 58.2535 120.002 59.0484 120.002 60.0078C120.002 60.9673 119.716 61.7621 119.141 62.3923C118.565 63.0226 117.821 63.3377 116.918 63.3377ZM116.918 62.6228C117.601 62.6228 118.153 62.3782 118.574 61.8844C118.995 61.3906 119.201 60.765 119.201 60.0078C119.201 59.2412 118.991 58.6157 118.574 58.1266C118.153 57.6374 117.606 57.3929 116.918 57.3929C116.23 57.3929 115.673 57.6374 115.256 58.1266C114.84 58.6157 114.634 59.2459 114.634 60.0078C114.634 60.7697 114.84 61.3953 115.256 61.8844C115.673 62.3735 116.225 62.6228 116.918 62.6228ZM126.918 63.2201H123.254V56.7767H124.026V62.5052H126.918V63.2201ZM132.291 63.3377C131.378 63.3377 130.634 63.0226 130.063 62.3923C129.492 61.7621 129.207 60.9673 129.207 60.0078C129.207 59.0484 129.492 58.2535 130.063 57.6233C130.634 56.9931 131.378 56.678 132.291 56.678C133.198 56.678 133.938 56.9931 134.513 57.6233C135.089 58.2535 135.374 59.0484 135.374 60.0078C135.374 60.9673 135.089 61.7621 134.513 62.3923C133.938 63.0226 133.194 63.3377 132.291 63.3377ZM132.291 62.6228C132.974 62.6228 133.526 62.3782 133.947 61.8844C134.368 61.3906 134.574 60.765 134.574 60.0078C134.574 59.2412 134.364 58.6157 133.947 58.1266C133.526 57.6374 132.978 57.3929 132.291 57.3929C131.603 57.3929 131.046 57.6374 130.629 58.1266C130.213 58.6157 130.007 59.2459 130.007 60.0078C130.007 60.7697 130.217 61.3953 130.629 61.8844C131.046 62.3735 131.598 62.6228 132.291 62.6228ZM141.575 63.3471C140.672 63.3471 139.914 63.0367 139.301 62.4159C138.688 61.795 138.379 60.9908 138.379 60.0078C138.379 59.0249 138.688 58.2206 139.301 57.6045C139.914 56.9884 140.672 56.678 141.575 56.678C142.558 56.678 143.363 57.0825 143.99 57.8867L143.377 58.2818C143.18 58.009 142.918 57.7973 142.6 57.6327C142.282 57.4728 141.94 57.3929 141.58 57.3929C140.896 57.3929 140.326 57.6374 139.867 58.1313C139.408 58.6251 139.184 59.2506 139.184 60.0078C139.184 60.7697 139.413 61.3953 139.867 61.8891C140.326 62.3829 140.892 62.6322 141.58 62.6322C141.921 62.6322 142.24 62.5617 142.534 62.4253C142.829 62.2889 143.068 62.1243 143.246 61.9361V60.6239H141.112V59.9091H144.023V62.2371C143.377 62.9755 142.562 63.3471 141.575 63.3471ZM149.722 63.2201H148.95V60.497L146.498 56.7767H147.401L149.329 59.7727L151.257 56.7767H152.161L149.718 60.497V63.2201H149.722Z" fill="#0096EA"/>
<path fill-rule="evenodd" clip-rule="evenodd" d="M18.3023 59.2223L24.7229 42.7188L19.3084 46.0016L23.7869 38.5894L30.6801 27.1748L27.8161 36.4683L27.9659 36.426L33.0761 34.8645L18.3023 59.2223Z" fill="#0096EA"/>
<path fill-rule="evenodd" clip-rule="evenodd" d="M235.618 10.4223C233.04 10.4223 230.943 8.24938 230.943 5.57798C230.943 2.90657 233.04 0.733697 235.618 0.733697C238.197 0.733697 240.293 2.90657 240.293 5.57798C240.293 8.24938 238.197 10.4223 235.618 10.4223ZM235.618 0C232.651 0 230.237 2.50209 230.237 5.57798C230.237 8.65386 232.651 11.156 235.618 11.156C238.585 11.156 241 8.65386 241 5.57798C241 2.50209 238.585 0 235.618 0Z" fill="black"/>
<path fill-rule="evenodd" clip-rule="evenodd" d="M234.589 3.69683V5.46993H236.128C236.77 5.46993 237.046 5.02783 237.046 4.58103C237.046 4.13893 236.765 3.69213 236.128 3.69213H234.589V3.69683ZM238.319 8.26833H237.116L235.557 6.41527H234.584V8.26833H233.573V2.71387C234.42 2.71387 235.272 2.72327 236.119 2.72327C237.383 2.73268 238.047 3.60277 238.047 4.56222C238.047 5.32413 237.71 6.09075 236.695 6.3071L238.319 8.20248V8.26833Z" fill="black"/>
<path fill-rule="evenodd" clip-rule="evenodd" d="M84.3235 79.7048C84.3235 79.7378 84.3142 79.766 84.3001 79.7848C84.2861 79.8083 84.258 79.8271 84.2159 79.8412C84.1738 79.8553 84.1223 79.8694 84.0615 79.8789C84.0006 79.8883 83.9211 79.893 83.8181 79.893C83.7245 79.893 83.645 79.8883 83.5795 79.8789C83.5139 79.8694 83.4625 79.8553 83.425 79.8412C83.3876 79.8271 83.3595 79.8083 83.3455 79.7848C83.3314 79.7613 83.3221 79.7331 83.3221 79.7048V73.0733H83.308L80.6593 79.7331C80.65 79.7613 80.6312 79.7848 80.6125 79.8036C80.5891 79.8224 80.5611 79.8412 80.5189 79.8553C80.4768 79.8694 80.43 79.8789 80.3739 79.8836C80.3177 79.8883 80.2522 79.893 80.1726 79.893C80.0931 79.893 80.0229 79.8883 79.962 79.8789C79.9059 79.8694 79.8544 79.86 79.817 79.8459C79.7795 79.8318 79.7468 79.8177 79.7234 79.7942C79.7047 79.7754 79.686 79.7519 79.6813 79.7284L77.1449 73.0686H77.1402V79.7001C77.1402 79.7331 77.1308 79.7613 77.1168 79.7801C77.1027 79.8036 77.0747 79.8224 77.0326 79.8365C76.9951 79.8506 76.939 79.8647 76.8781 79.8742C76.8126 79.8836 76.7331 79.8883 76.6348 79.8883C76.5365 79.8883 76.457 79.8836 76.3961 79.8742C76.3306 79.8647 76.2791 79.8506 76.2417 79.8365C76.2042 79.8224 76.1762 79.8036 76.1621 79.7801C76.1481 79.7566 76.1387 79.7284 76.1387 79.7001V72.6971C76.1387 72.5325 76.1808 72.4149 76.2698 72.3444C76.3587 72.2738 76.4523 72.2362 76.5599 72.2362H77.173C77.2993 72.2362 77.4069 72.2503 77.5005 72.2738C77.5941 72.2973 77.6784 72.3349 77.7486 72.382C77.8187 72.4337 77.8796 72.4996 77.9264 72.5748C77.9732 72.6548 78.0153 72.7441 78.0527 72.8523L80.2054 78.3644H80.2335L82.4657 72.8664C82.5078 72.7488 82.5546 72.6501 82.6108 72.5654C82.6622 72.4854 82.7184 72.4149 82.7792 72.3679C82.8401 72.3161 82.9103 72.2832 82.9805 72.2597C83.0553 72.2362 83.1442 72.2268 83.2378 72.2268H83.8836C83.9398 72.2268 84.0006 72.2362 84.0521 72.255C84.1036 72.2738 84.1504 72.302 84.1878 72.335C84.2253 72.3726 84.2533 72.4196 84.2767 72.476C84.3001 72.5325 84.3142 72.603 84.3142 72.683V79.7048H84.3235ZM89.0828 72.2362C89.0828 72.3114 89.0781 72.3726 89.0688 72.4149C89.0594 72.4572 89.0547 72.4949 89.0407 72.5231C89.0313 72.5513 89.0173 72.5701 89.0032 72.5795C88.9892 72.5889 88.9658 72.5936 88.9471 72.5936C88.919 72.5936 88.8862 72.5842 88.8441 72.5654C88.802 72.5466 88.7552 72.5278 88.6944 72.5043C88.6382 72.4855 88.568 72.4619 88.4885 72.4478C88.4089 72.429 88.3153 72.4196 88.2124 72.4196C88.0673 72.4196 87.9456 72.4431 87.8474 72.4902C87.7491 72.5372 87.6648 72.6124 87.604 72.7112C87.5432 72.81 87.4964 72.9417 87.473 73.1016C87.4449 73.2615 87.4309 73.4543 87.4309 73.6848V74.2633H88.5961C88.6242 74.2633 88.6523 74.268 88.6757 74.2821C88.6991 74.2962 88.7131 74.3197 88.7318 74.3526C88.7505 74.3855 88.7646 74.4279 88.7739 74.4796C88.7833 74.5313 88.788 74.5925 88.788 74.6677C88.788 74.8088 88.7692 74.9123 88.7365 74.9734C88.6991 75.0346 88.6569 75.0675 88.5961 75.0675H87.4309V79.7048C87.4309 79.7378 87.4215 79.7613 87.4075 79.7848C87.3934 79.8036 87.3653 79.8271 87.3326 79.8412C87.2951 79.8553 87.2437 79.8695 87.1828 79.8742C87.122 79.8836 87.0424 79.8883 86.9488 79.8883C86.8553 79.8883 86.7804 79.8836 86.7149 79.8742C86.654 79.8647 86.6025 79.8553 86.5651 79.8412C86.5277 79.8271 86.5043 79.8036 86.4856 79.7848C86.4715 79.7613 86.4622 79.7378 86.4622 79.7048V75.0675H85.7181C85.6572 75.0675 85.6104 75.0346 85.5777 74.9734C85.5449 74.9123 85.5309 74.8088 85.5309 74.6677C85.5309 74.5925 85.5356 74.5313 85.5449 74.4796C85.5543 74.4279 85.5637 74.3855 85.5824 74.3526C85.5964 74.3197 85.6151 74.2962 85.6385 74.2821C85.6619 74.268 85.69 74.2633 85.7181 74.2633H86.4622V73.713C86.4622 73.3414 86.4949 73.0263 86.5651 72.7582C86.6353 72.4949 86.7383 72.2738 86.8786 72.1045C87.019 71.9352 87.1922 71.8082 87.4075 71.7282C87.618 71.6483 87.8661 71.606 88.1562 71.606C88.2919 71.606 88.423 71.6201 88.5493 71.6436C88.6803 71.6718 88.7786 71.6953 88.8488 71.7235C88.919 71.7518 88.9658 71.78 88.9892 71.8035C89.0126 71.827 89.0313 71.8552 89.0454 71.8929C89.0594 71.9305 89.0734 71.9728 89.0781 72.0292C89.0828 72.0951 89.0828 72.1609 89.0828 72.2362ZM93.8654 74.6583C93.8654 74.5266 93.8514 74.4279 93.814 74.362C93.7812 74.2962 93.7344 74.2633 93.6642 74.2633H92.0825C91.9608 74.2303 91.8345 74.2021 91.6941 74.1833C91.5537 74.1645 91.4086 74.1551 91.2495 74.1551C90.9547 74.1551 90.6833 74.1974 90.4305 74.2868C90.1825 74.3761 89.9673 74.5031 89.7894 74.6677C89.6116 74.8323 89.4712 75.0346 89.3729 75.2744C89.27 75.5143 89.2232 75.7824 89.2232 76.0834C89.2232 76.3421 89.2606 76.5631 89.3261 76.7465C89.3963 76.93 89.4899 77.0899 89.6116 77.2357C89.4712 77.3862 89.3542 77.5555 89.2606 77.7436C89.167 77.9317 89.1155 78.1481 89.1155 78.3879C89.1155 78.562 89.1623 78.7219 89.2513 78.8677C89.3402 79.0182 89.4806 79.1405 89.6678 79.2392C89.5414 79.338 89.4338 79.4368 89.3402 79.5355C89.2466 79.6343 89.167 79.7425 89.1015 79.8506C89.036 79.9588 88.9892 80.0764 88.9564 80.1987C88.9284 80.321 88.9096 80.4432 88.9096 80.5749C88.9096 80.7772 88.9518 80.97 89.036 81.144C89.1202 81.318 89.2606 81.4685 89.4478 81.5955C89.6397 81.7178 89.883 81.8213 90.1778 81.8918C90.4727 81.9624 90.833 82 91.2542 82C91.6941 82 92.0731 81.953 92.3913 81.8542C92.7142 81.7601 92.9763 81.6284 93.1869 81.4591C93.3975 81.2945 93.5472 81.1017 93.6502 80.8806C93.7531 80.6596 93.7999 80.4291 93.7999 80.1893C93.7999 79.9588 93.7578 79.7566 93.6689 79.5826C93.58 79.4085 93.4583 79.2627 93.2992 79.1452C93.1401 79.0229 92.9529 78.9335 92.7376 78.8677C92.5224 78.8018 92.2837 78.7689 92.0263 78.7595L90.6645 78.7031C90.4586 78.6937 90.2855 78.6466 90.1638 78.5526C90.0374 78.4632 89.9766 78.3456 89.9766 78.2092C89.9766 78.0916 90 77.9882 90.0421 77.8941C90.0842 77.8047 90.1404 77.7248 90.2059 77.6543C90.3089 77.7389 90.4586 77.8095 90.6505 77.8706C90.8424 77.927 91.0436 77.9553 91.2589 77.9553C91.5584 77.9553 91.8345 77.9129 92.0825 77.8283C92.3305 77.7436 92.5458 77.6166 92.7236 77.452C92.9061 77.2874 93.0418 77.0899 93.1401 76.8547C93.2384 76.6196 93.2852 76.3468 93.2852 76.0458C93.2852 75.8623 93.2571 75.6883 93.2056 75.519C93.1541 75.3497 93.0559 75.1945 92.9201 75.0534H93.6736C93.7344 75.0534 93.7812 75.0252 93.8186 74.964C93.8514 74.8982 93.8654 74.7994 93.8654 74.6583ZM92.3679 76.0505C92.3679 76.201 92.3445 76.3515 92.3024 76.4879C92.2603 76.629 92.1901 76.7512 92.1012 76.8594C92.0123 76.9676 91.8953 77.0522 91.7549 77.1134C91.6145 77.1745 91.4507 77.2027 91.2589 77.2027C90.9079 77.2027 90.6318 77.104 90.4352 76.9017C90.2387 76.6995 90.1404 76.4267 90.1404 76.0787C90.1404 75.9235 90.1638 75.773 90.2059 75.6272C90.248 75.4861 90.3182 75.3591 90.4071 75.2462C90.4961 75.138 90.6131 75.0534 90.7488 74.9875C90.8845 74.9264 91.0483 74.8935 91.2355 74.8935C91.5958 74.8935 91.8719 74.9922 92.0684 75.1992C92.2697 75.4061 92.3679 75.6883 92.3679 76.0505ZM92.8453 80.241C92.8453 80.3727 92.8172 80.4997 92.7657 80.622C92.7142 80.7442 92.6253 80.8477 92.5037 80.9418C92.3867 81.0358 92.2276 81.1111 92.031 81.1675C91.8345 81.224 91.5911 81.2522 91.301 81.2522C90.847 81.2522 90.4914 81.1863 90.234 81.0546C89.9766 80.923 89.8503 80.7301 89.8503 80.4762C89.8503 80.3962 89.8596 80.3163 89.8783 80.2363C89.8971 80.1563 89.9298 80.0764 89.9719 79.9964C90.0187 79.9165 90.0796 79.8318 90.1591 79.7472C90.2387 79.6578 90.3416 79.5684 90.4633 79.4697L91.8157 79.5167C92.1293 79.5261 92.3773 79.592 92.5598 79.7142C92.7517 79.8365 92.8453 80.0105 92.8453 80.241ZM96.341 79.211C96.341 79.4885 96.2942 79.6766 96.2053 79.766C96.1164 79.86 95.9479 79.9024 95.7093 79.9024C95.4753 79.9024 95.3162 79.8553 95.2272 79.766C95.1383 79.6766 95.0962 79.4932 95.0962 79.2251C95.0962 78.9476 95.143 78.7595 95.2319 78.6701C95.3208 78.5761 95.4893 78.5337 95.728 78.5337C95.962 78.5337 96.1211 78.5761 96.21 78.6701C96.2942 78.7548 96.341 78.9382 96.341 79.211ZM107.198 75.9611C107.198 76.5772 107.128 77.1322 106.983 77.626C106.838 78.1199 106.622 78.5384 106.342 78.8865C106.056 79.2298 105.7 79.4979 105.27 79.686C104.839 79.8741 104.339 79.9635 103.763 79.9635C103.197 79.9635 102.71 79.8789 102.298 79.7095C101.882 79.5402 101.545 79.291 101.273 78.9664C101.002 78.6419 100.801 78.2374 100.674 77.7577C100.543 77.278 100.478 76.723 100.478 76.0975C100.478 75.4955 100.548 74.9499 100.693 74.4608C100.838 73.9717 101.053 73.5531 101.339 73.2097C101.624 72.8664 101.985 72.603 102.415 72.4149C102.846 72.2268 103.347 72.1374 103.922 72.1374C104.474 72.1374 104.956 72.2221 105.368 72.3914C105.78 72.5607 106.122 72.8053 106.393 73.1298C106.664 73.4543 106.87 73.8541 107.006 74.3291C107.132 74.7994 107.198 75.345 107.198 75.9611ZM106.14 76.0317C106.14 75.6037 106.103 75.1992 106.028 74.8323C105.953 74.4608 105.827 74.141 105.654 73.8682C105.476 73.5954 105.242 73.3838 104.947 73.2333C104.652 73.0828 104.287 73.0028 103.857 73.0028C103.421 73.0028 103.061 73.0875 102.766 73.2474C102.471 73.412 102.233 73.633 102.05 73.9058C101.868 74.1833 101.737 74.4984 101.657 74.8653C101.578 75.2321 101.54 75.6131 101.54 76.0175C101.54 76.4643 101.578 76.8735 101.652 77.2498C101.727 77.626 101.849 77.9506 102.022 78.2233C102.195 78.4961 102.429 78.7031 102.719 78.8536C103.01 79.0041 103.379 79.0793 103.819 79.0793C104.259 79.0793 104.624 78.9947 104.924 78.83C105.223 78.6654 105.462 78.4444 105.644 78.1622C105.827 77.8847 105.958 77.5602 106.033 77.1886C106.103 76.8312 106.14 76.4408 106.14 76.0317ZM111.545 72.2362C111.545 72.3114 111.541 72.3726 111.531 72.4149C111.522 72.4572 111.517 72.4949 111.503 72.5231C111.494 72.5513 111.48 72.5701 111.466 72.5795C111.452 72.5889 111.428 72.5936 111.41 72.5936C111.382 72.5936 111.349 72.5842 111.307 72.5654C111.265 72.5466 111.218 72.5278 111.157 72.5043C111.101 72.4855 111.031 72.4619 110.951 72.4478C110.871 72.429 110.778 72.4196 110.675 72.4196C110.53 72.4196 110.408 72.4431 110.31 72.4902C110.212 72.5372 110.127 72.6124 110.067 72.7112C110.006 72.81 109.959 72.9417 109.936 73.1016C109.907 73.2615 109.893 73.4543 109.893 73.6848V74.2633H111.059C111.087 74.2633 111.115 74.268 111.138 74.2821C111.162 74.2962 111.18 74.3197 111.194 74.3526C111.213 74.3855 111.227 74.4279 111.237 74.4796C111.246 74.5313 111.251 74.5925 111.251 74.6677C111.251 74.8088 111.232 74.9123 111.199 74.9734C111.162 75.0346 111.12 75.0675 111.059 75.0675H109.893V79.7048C109.893 79.7378 109.884 79.7613 109.87 79.7848C109.856 79.8036 109.828 79.8271 109.79 79.8412C109.753 79.8553 109.702 79.8695 109.641 79.8742C109.58 79.8836 109.5 79.8883 109.407 79.8883C109.313 79.8883 109.238 79.8836 109.173 79.8742C109.112 79.8647 109.06 79.8553 109.023 79.8412C108.986 79.8271 108.962 79.8036 108.948 79.7848C108.934 79.7613 108.925 79.7378 108.925 79.7048V75.0675H108.181C108.12 75.0675 108.073 75.0346 108.04 74.9734C108.008 74.9123 107.993 74.8088 107.993 74.6677C107.993 74.5925 107.998 74.5313 108.008 74.4796C108.017 74.4279 108.026 74.3855 108.045 74.3526C108.059 74.3197 108.078 74.2962 108.101 74.2821C108.125 74.268 108.153 74.2633 108.181 74.2633H108.925V73.713C108.925 73.3414 108.957 73.0263 109.028 72.7582C109.098 72.4949 109.201 72.2738 109.341 72.1045C109.482 71.9352 109.655 71.8082 109.87 71.7282C110.081 71.6483 110.329 71.606 110.619 71.606C110.754 71.606 110.886 71.6201 111.012 71.6436C111.143 71.6718 111.241 71.6953 111.311 71.7235C111.382 71.7518 111.428 71.78 111.452 71.8035C111.475 71.827 111.494 71.8552 111.508 71.8929C111.522 71.9305 111.536 71.9728 111.541 72.0292C111.545 72.0951 111.545 72.1609 111.545 72.2362ZM120.736 79.4979C120.764 79.5826 120.783 79.6531 120.788 79.7048C120.788 79.7566 120.774 79.7989 120.746 79.8271C120.713 79.8553 120.661 79.8694 120.591 79.8789C120.521 79.8883 120.423 79.893 120.301 79.893C120.184 79.893 120.086 79.893 120.016 79.8836C119.945 79.8789 119.889 79.8694 119.852 79.8553C119.814 79.8412 119.786 79.8224 119.772 79.7989C119.754 79.7754 119.74 79.7472 119.721 79.7095L119.075 77.8565H115.949L115.331 79.686C115.317 79.7236 115.303 79.7519 115.284 79.7801C115.266 79.8083 115.238 79.8271 115.2 79.8459C115.163 79.8647 115.111 79.8742 115.046 79.8836C114.98 79.893 114.891 79.8977 114.784 79.8977C114.671 79.8977 114.578 79.893 114.508 79.8836C114.437 79.8742 114.386 79.8553 114.358 79.8271C114.33 79.7989 114.316 79.7566 114.316 79.7048C114.316 79.6484 114.334 79.5826 114.367 79.4979L116.89 72.4243C116.904 72.382 116.927 72.3444 116.95 72.3161C116.979 72.2879 117.011 72.2644 117.063 72.2503C117.11 72.2362 117.17 72.2221 117.25 72.2174C117.325 72.2127 117.418 72.208 117.535 72.208C117.657 72.208 117.76 72.208 117.844 72.2174C117.924 72.2221 117.989 72.2362 118.041 72.2503C118.092 72.2644 118.13 72.2879 118.158 72.3161C118.186 72.3444 118.209 72.382 118.223 72.4243L120.736 79.4979ZM117.498 73.2521H117.493L116.197 77.0475H118.813L117.498 73.2521ZM122.852 79.7095C122.852 79.7425 122.842 79.766 122.828 79.7895C122.814 79.8083 122.791 79.8318 122.753 79.8459C122.716 79.86 122.669 79.8742 122.608 79.8789C122.547 79.8883 122.468 79.893 122.37 79.893C122.276 79.893 122.196 79.8883 122.136 79.8789C122.07 79.8694 122.023 79.86 121.986 79.8459C121.948 79.8318 121.92 79.8083 121.911 79.7895C121.897 79.766 121.892 79.7425 121.892 79.7095V71.8552C121.892 71.8223 121.897 71.7941 121.911 71.7753C121.925 71.7518 121.948 71.7329 121.986 71.7141C122.023 71.7 122.07 71.6859 122.136 71.6812C122.196 71.6718 122.276 71.6671 122.37 71.6671C122.468 71.6671 122.547 71.6718 122.608 71.6812C122.674 71.6906 122.72 71.7 122.753 71.7141C122.791 71.7282 122.814 71.7518 122.828 71.7753C122.842 71.7988 122.852 71.827 122.852 71.8552V79.7095ZM125.58 79.7095C125.58 79.7425 125.57 79.766 125.556 79.7895C125.542 79.8083 125.519 79.8318 125.482 79.8459C125.444 79.86 125.397 79.8742 125.336 79.8789C125.276 79.8883 125.196 79.893 125.098 79.893C125.004 79.893 124.925 79.8883 124.864 79.8789C124.798 79.8694 124.751 79.86 124.714 79.8459C124.677 79.8318 124.649 79.8083 124.634 79.7895C124.62 79.766 124.616 79.7425 124.616 79.7095V71.8552C124.616 71.8223 124.62 71.7941 124.634 71.7753C124.649 71.7518 124.672 71.7329 124.714 71.7141C124.751 71.7 124.798 71.6859 124.864 71.6812C124.925 71.6718 125.004 71.6671 125.098 71.6671C125.196 71.6671 125.276 71.6718 125.336 71.6812C125.402 71.6906 125.449 71.7 125.482 71.7141C125.519 71.7282 125.542 71.7518 125.556 71.7753C125.57 71.7988 125.58 71.827 125.58 71.8552V79.7095ZM135.164 79.7048C135.164 79.7378 135.159 79.7613 135.145 79.7848C135.131 79.8083 135.108 79.8271 135.07 79.8459C135.033 79.86 134.977 79.8742 134.906 79.8789C134.836 79.8883 134.743 79.893 134.63 79.893C134.527 79.893 134.448 79.8883 134.382 79.8789C134.317 79.8694 134.265 79.86 134.228 79.8412C134.19 79.8224 134.162 79.7989 134.139 79.766C134.116 79.7378 134.102 79.6954 134.083 79.6484L133.39 77.8518C133.311 77.6448 133.222 77.4614 133.138 77.2921C133.049 77.1228 132.946 76.977 132.824 76.85C132.707 76.723 132.562 76.629 132.398 76.5631C132.234 76.4926 132.038 76.4596 131.813 76.4596H131.144V79.7048C131.144 79.7378 131.135 79.7613 131.121 79.7848C131.102 79.8083 131.074 79.8271 131.041 79.8412C131.004 79.8553 130.952 79.8694 130.891 79.8789C130.826 79.8883 130.746 79.893 130.648 79.893C130.55 79.893 130.47 79.8883 130.405 79.8789C130.339 79.8694 130.288 79.8553 130.25 79.8412C130.213 79.8271 130.185 79.8083 130.171 79.7848C130.157 79.7613 130.147 79.7331 130.147 79.7048V72.6548C130.147 72.5043 130.185 72.3961 130.264 72.335C130.344 72.2738 130.428 72.2456 130.517 72.2456H132.117C132.309 72.2456 132.464 72.2503 132.59 72.2597C132.716 72.2691 132.829 72.2832 132.927 72.2926C133.217 72.3444 133.474 72.4243 133.699 72.5325C133.924 72.6407 134.106 72.7818 134.261 72.9511C134.415 73.1204 134.527 73.3132 134.602 73.5296C134.677 73.7459 134.715 73.9858 134.715 74.2491C134.715 74.5031 134.682 74.7289 134.612 74.9358C134.541 75.138 134.443 75.3168 134.317 75.472C134.186 75.6272 134.036 75.7589 133.858 75.8764C133.68 75.9893 133.479 76.0834 133.259 76.1633C133.386 76.2198 133.493 76.2856 133.596 76.3703C133.699 76.4549 133.793 76.5584 133.877 76.676C133.966 76.7936 134.045 76.93 134.125 77.0852C134.204 77.2357 134.279 77.4097 134.359 77.6025L135.033 79.2816C135.084 79.4227 135.122 79.5214 135.136 79.5779C135.154 79.6249 135.164 79.6719 135.164 79.7048ZM133.657 74.3479C133.657 74.0516 133.591 73.7976 133.46 73.5907C133.329 73.3838 133.109 73.238 132.796 73.1486C132.698 73.1204 132.59 73.1016 132.468 73.0922C132.347 73.0781 132.188 73.0733 131.986 73.0733H131.144V75.6413H132.122C132.384 75.6413 132.613 75.6084 132.805 75.5472C132.997 75.4814 133.156 75.392 133.283 75.2744C133.414 75.1569 133.503 75.0205 133.568 74.8653C133.629 74.7054 133.657 74.536 133.657 74.3479ZM137.798 79.211C137.798 79.4885 137.752 79.6766 137.663 79.766C137.574 79.86 137.405 79.9024 137.167 79.9024C136.933 79.9024 136.774 79.8553 136.685 79.766C136.596 79.6766 136.554 79.4932 136.554 79.2251C136.554 78.9476 136.6 78.7595 136.689 78.6701C136.778 78.5761 136.947 78.5337 137.185 78.5337C137.419 78.5337 137.579 78.5761 137.667 78.6701C137.752 78.7548 137.798 78.9382 137.798 79.211ZM145.838 75.9611C145.838 76.5772 145.768 77.1322 145.623 77.626C145.478 78.1199 145.263 78.5384 144.982 78.8865C144.696 79.2298 144.341 79.4979 143.91 79.686C143.48 79.8741 142.979 79.9635 142.403 79.9635C141.837 79.9635 141.35 79.8789 140.939 79.7095C140.522 79.5402 140.185 79.291 139.914 78.9664C139.642 78.6419 139.441 78.2374 139.315 77.7577C139.184 77.278 139.118 76.723 139.118 76.0975C139.118 75.4955 139.188 74.9499 139.333 74.4608C139.479 73.9717 139.694 73.5531 139.979 73.2097C140.265 72.8664 140.625 72.603 141.056 72.4149C141.486 72.2268 141.987 72.1374 142.562 72.1374C143.115 72.1374 143.597 72.2221 144.008 72.3914C144.42 72.5607 144.762 72.8053 145.033 73.1298C145.305 73.4543 145.511 73.8541 145.646 74.3291C145.768 74.7994 145.838 75.345 145.838 75.9611ZM144.781 76.0317C144.781 75.6037 144.743 75.1992 144.668 74.8323C144.593 74.4608 144.467 74.141 144.289 73.8682C144.111 73.5954 143.877 73.3838 143.587 73.2333C143.292 73.0828 142.927 73.0028 142.497 73.0028C142.062 73.0028 141.701 73.0875 141.407 73.2474C141.112 73.412 140.873 73.633 140.691 73.9058C140.508 74.1833 140.377 74.4984 140.297 74.8653C140.218 75.2321 140.18 75.6131 140.18 76.0175C140.18 76.4643 140.218 76.8735 140.293 77.2498C140.368 77.626 140.489 77.9506 140.662 78.2233C140.836 78.4961 141.07 78.7031 141.36 78.8536C141.65 79.0041 142.02 79.0793 142.459 79.0793C142.899 79.0793 143.264 78.9947 143.564 78.83C143.863 78.6654 144.102 78.4444 144.285 78.1622C144.467 77.8847 144.593 77.5602 144.673 77.1886C144.738 76.8312 144.781 76.4408 144.781 76.0317ZM148.379 79.211C148.379 79.4885 148.333 79.6766 148.244 79.766C148.155 79.86 147.986 79.9024 147.748 79.9024C147.514 79.9024 147.354 79.8553 147.266 79.766C147.177 79.6766 147.135 79.4932 147.135 79.2251C147.135 78.9476 147.181 78.7595 147.27 78.6701C147.359 78.5761 147.528 78.5337 147.766 78.5337C148 78.5337 148.159 78.5761 148.248 78.6701C148.333 78.7548 148.379 78.9382 148.379 79.211ZM157.561 74.4749C157.561 74.8559 157.5 75.1992 157.374 75.5049C157.252 75.8106 157.074 76.0693 156.84 76.2856C156.611 76.502 156.33 76.6666 155.993 76.7842C155.656 76.9017 155.258 76.9629 154.79 76.9629H153.939V79.7001C153.939 79.7331 153.929 79.7613 153.911 79.7801C153.892 79.8036 153.864 79.8224 153.831 79.8365C153.794 79.8506 153.742 79.8647 153.681 79.8742C153.616 79.8836 153.536 79.8883 153.438 79.8883C153.34 79.8883 153.26 79.8836 153.195 79.8742C153.129 79.8647 153.078 79.8506 153.04 79.8365C153.003 79.8224 152.975 79.8036 152.961 79.7801C152.947 79.7566 152.937 79.7284 152.937 79.7001V72.6736C152.937 72.5184 152.979 72.4055 153.059 72.3397C153.139 72.2738 153.227 72.2409 153.33 72.2409H154.94C155.104 72.2409 155.258 72.2456 155.408 72.2597C155.558 72.2738 155.736 72.302 155.937 72.3491C156.143 72.3961 156.349 72.4807 156.559 72.603C156.77 72.73 156.948 72.8805 157.098 73.0592C157.243 73.238 157.355 73.4496 157.435 73.6848C157.519 73.9246 157.561 74.188 157.561 74.4749ZM156.513 74.5549C156.513 74.2444 156.456 73.9858 156.344 73.7741C156.227 73.5672 156.087 73.412 155.918 73.3085C155.75 73.2097 155.577 73.1439 155.399 73.1157C155.216 73.0875 155.043 73.0733 154.87 73.0733H153.948V76.1351H154.851C155.151 76.1351 155.404 76.0928 155.605 76.0175C155.806 75.9376 155.97 75.8294 156.11 75.6883C156.246 75.5519 156.349 75.3826 156.419 75.1898C156.48 74.9922 156.513 74.7806 156.513 74.5549ZM162.666 79.7142C162.666 79.7613 162.652 79.7989 162.62 79.8224C162.587 79.8459 162.545 79.8647 162.489 79.8742C162.437 79.8883 162.358 79.893 162.25 79.893C162.152 79.893 162.067 79.8883 162.011 79.8742C161.95 79.86 161.908 79.8459 161.88 79.8224C161.852 79.7989 161.838 79.766 161.838 79.7142V79.1828C161.609 79.4274 161.356 79.6202 161.075 79.7613C160.795 79.8977 160.495 79.9635 160.182 79.9635C159.905 79.9635 159.657 79.9259 159.433 79.8553C159.213 79.7848 159.021 79.6766 158.862 79.5402C158.707 79.4038 158.581 79.2345 158.497 79.0323C158.408 78.83 158.366 78.6043 158.366 78.3503C158.366 78.0493 158.427 77.7906 158.548 77.5743C158.665 77.3532 158.838 77.1698 159.068 77.024C159.292 76.8782 159.568 76.7701 159.891 76.6948C160.219 76.6243 160.584 76.5866 160.991 76.5866H161.712V76.1728C161.712 75.9705 161.688 75.7871 161.646 75.6319C161.604 75.4767 161.534 75.345 161.44 75.2415C161.347 75.138 161.22 75.0581 161.071 75.0064C160.921 74.9499 160.734 74.9264 160.514 74.9264C160.28 74.9264 160.065 74.9546 159.877 75.0111C159.69 75.0675 159.526 75.1333 159.381 75.2039C159.241 75.2744 159.119 75.3356 159.026 75.3967C158.932 75.4532 158.862 75.4814 158.815 75.4814C158.782 75.4814 158.754 75.472 158.735 75.4579C158.712 75.4438 158.693 75.4202 158.675 75.3873C158.656 75.3591 158.647 75.3168 158.637 75.2697C158.628 75.218 158.623 75.1663 158.623 75.1051C158.623 75.0111 158.628 74.9311 158.642 74.8747C158.656 74.8182 158.689 74.7618 158.74 74.7148C158.792 74.663 158.881 74.6019 159.012 74.536C159.138 74.4655 159.288 74.4044 159.451 74.3432C159.615 74.2868 159.798 74.2397 159.999 74.2021C160.196 74.1645 160.397 74.1457 160.598 74.1457C160.972 74.1457 161.291 74.188 161.557 74.2727C161.819 74.3573 162.035 74.489 162.194 74.6536C162.358 74.8182 162.475 75.0252 162.545 75.2744C162.62 75.519 162.657 75.8106 162.657 76.1398V79.7142H162.666ZM161.716 77.2874H160.898C160.635 77.2874 160.406 77.3109 160.214 77.3579C160.022 77.4003 159.863 77.4708 159.732 77.5602C159.606 77.6495 159.512 77.753 159.451 77.8753C159.391 78.0023 159.363 78.1434 159.363 78.3033C159.363 78.5808 159.447 78.7971 159.62 78.9617C159.793 79.1263 160.032 79.2063 160.345 79.2063C160.593 79.2063 160.827 79.1405 161.043 79.0135C161.258 78.8865 161.482 78.6842 161.721 78.4209V77.2874H161.716ZM167.487 74.7571C167.487 74.8417 167.487 74.917 167.482 74.9734C167.477 75.0299 167.468 75.0769 167.458 75.1098C167.449 75.1427 167.43 75.1663 167.416 75.1851C167.402 75.2039 167.379 75.2133 167.346 75.2133C167.313 75.2133 167.276 75.2039 167.234 75.1851C167.187 75.1663 167.14 75.1475 167.084 75.1333C167.028 75.1145 166.967 75.1004 166.897 75.0816C166.827 75.0675 166.752 75.0581 166.672 75.0581C166.574 75.0581 166.48 75.0769 166.387 75.1145C166.293 75.1569 166.195 75.218 166.097 75.3121C165.994 75.4014 165.886 75.5237 165.774 75.6695C165.661 75.82 165.54 76.0034 165.404 76.2198V79.7048C165.404 79.7378 165.395 79.7613 165.381 79.7848C165.367 79.8036 165.343 79.8271 165.306 79.8412C165.268 79.8553 165.222 79.8695 165.161 79.8742C165.1 79.8836 165.02 79.8883 164.922 79.8883C164.828 79.8883 164.749 79.8836 164.688 79.8742C164.623 79.8647 164.576 79.8553 164.538 79.8412C164.501 79.8271 164.473 79.8036 164.459 79.7848C164.445 79.7613 164.44 79.7378 164.44 79.7048V74.4091C164.44 74.3761 164.445 74.3526 164.459 74.3291C164.473 74.3103 164.492 74.2868 164.529 74.2727C164.566 74.2538 164.609 74.2444 164.665 74.235C164.716 74.2303 164.791 74.2256 164.88 74.2256C164.964 74.2256 165.039 74.2256 165.091 74.235C165.147 74.2397 165.193 74.2538 165.222 74.2727C165.25 74.2915 165.273 74.3103 165.287 74.3291C165.301 74.3526 165.306 74.3761 165.306 74.4091V75.1804C165.451 74.9687 165.582 74.7947 165.708 74.6583C165.835 74.5266 165.956 74.4185 166.064 74.3432C166.176 74.268 166.289 74.2162 166.396 74.1833C166.508 74.1551 166.616 74.141 166.733 74.141C166.785 74.141 166.841 74.141 166.902 74.1504C166.967 74.1551 167.033 74.1692 167.103 74.1833C167.173 74.1974 167.234 74.2162 167.29 74.235C167.346 74.2538 167.384 74.2727 167.407 74.2915C167.43 74.3103 167.444 74.3291 167.454 74.3479C167.463 74.3667 167.468 74.3902 167.477 74.4138C167.482 74.442 167.487 74.4843 167.487 74.536C167.487 74.5972 167.487 74.663 167.487 74.7571Z" fill="black"/>
<path fill-rule="evenodd" clip-rule="evenodd" d="M171.291 79.3144C171.291 79.4272 171.282 79.5213 171.268 79.5872C171.254 79.653 171.23 79.7047 171.198 79.733C171.169 79.7659 171.118 79.7941 171.057 79.8223C170.996 79.8505 170.926 79.874 170.847 79.8929C170.767 79.9117 170.683 79.9258 170.594 79.9352C170.505 79.9493 170.416 79.954 170.327 79.954C170.056 79.954 169.822 79.9164 169.63 79.8458C169.438 79.7753 169.279 79.6624 169.152 79.5166C169.031 79.3708 168.942 79.1827 168.881 78.9569C168.825 78.7312 168.797 78.4678 168.797 78.1621V75.0721H168.062C168.006 75.0721 167.959 75.0392 167.922 74.978C167.889 74.9169 167.87 74.8134 167.87 74.6723C167.87 74.5971 167.875 74.5359 167.884 74.4842C167.894 74.4325 167.908 74.3901 167.922 74.3572C167.936 74.3243 167.959 74.3008 167.983 74.2867C168.011 74.2726 168.034 74.2679 168.067 74.2679H168.797V73.0121C168.797 72.9839 168.801 72.9557 168.816 72.9369C168.83 72.9133 168.853 72.8945 168.895 72.8757C168.933 72.8569 168.979 72.8475 169.045 72.8381C169.106 72.8287 169.185 72.824 169.279 72.824C169.377 72.824 169.457 72.8287 169.517 72.8381C169.583 72.8475 169.63 72.8569 169.663 72.8757C169.7 72.8945 169.723 72.9133 169.737 72.9369C169.751 72.9604 169.761 72.9839 169.761 73.0121V74.2679H171.095C171.127 74.2679 171.151 74.2726 171.174 74.2867C171.198 74.3008 171.216 74.3243 171.235 74.3572C171.254 74.3901 171.263 74.4325 171.272 74.4842C171.282 74.5359 171.286 74.5971 171.286 74.6723C171.286 74.8134 171.268 74.9169 171.235 74.978C171.198 75.0392 171.155 75.0721 171.095 75.0721H169.761V78.0163C169.761 78.3784 169.812 78.6559 169.92 78.8393C170.023 79.0275 170.215 79.1168 170.491 79.1168C170.58 79.1168 170.659 79.1074 170.725 79.0886C170.795 79.0698 170.856 79.051 170.907 79.0322C170.959 79.0134 171.006 78.9946 171.048 78.9757C171.085 78.9569 171.123 78.9475 171.151 78.9475C171.169 78.9475 171.188 78.9522 171.207 78.9616C171.221 78.971 171.235 78.9898 171.244 79.0181C171.254 79.0463 171.263 79.0839 171.268 79.1309C171.291 79.1827 171.291 79.2438 171.291 79.3144ZM175.849 78.2609C175.849 78.5336 175.798 78.7735 175.699 78.9851C175.601 79.1968 175.461 79.3755 175.278 79.5213C175.096 79.6671 174.88 79.7753 174.628 79.8505C174.375 79.9258 174.099 79.9634 173.795 79.9634C173.608 79.9634 173.43 79.9493 173.261 79.9211C173.093 79.8929 172.943 79.8552 172.807 79.8129C172.676 79.7706 172.559 79.7235 172.47 79.6765C172.377 79.6295 172.311 79.5825 172.269 79.5448C172.227 79.5072 172.194 79.4508 172.176 79.3802C172.157 79.3097 172.147 79.2156 172.147 79.0933C172.147 79.0181 172.152 78.9569 172.162 78.9052C172.171 78.8535 172.18 78.8111 172.19 78.7782C172.204 78.7453 172.218 78.7218 172.241 78.7077C172.264 78.6936 172.288 78.6888 172.316 78.6888C172.358 78.6888 172.419 78.7171 172.503 78.7688C172.587 78.8205 172.69 78.8817 172.812 78.9428C172.934 79.004 173.079 79.0651 173.243 79.1168C173.411 79.1733 173.598 79.1968 173.813 79.1968C173.977 79.1968 174.122 79.178 174.253 79.1404C174.384 79.1074 174.501 79.0557 174.595 78.9851C174.693 78.9146 174.763 78.8299 174.82 78.7218C174.871 78.6136 174.899 78.4913 174.899 78.3408C174.899 78.1903 174.862 78.0633 174.787 77.9646C174.712 77.8611 174.614 77.7717 174.487 77.6918C174.361 77.6118 174.225 77.5413 174.071 77.4848C173.916 77.4237 173.757 77.3625 173.594 77.292C173.43 77.2215 173.271 77.1509 173.112 77.0662C172.957 76.9816 172.817 76.8781 172.69 76.7558C172.569 76.6336 172.47 76.4878 172.391 76.3184C172.316 76.1491 172.279 75.9469 172.279 75.7117C172.279 75.5048 172.321 75.3073 172.396 75.1144C172.475 74.9216 172.592 74.757 172.751 74.6159C172.91 74.4748 173.112 74.3572 173.35 74.2726C173.589 74.1879 173.865 74.1456 174.183 74.1456C174.324 74.1456 174.459 74.1597 174.6 74.1832C174.74 74.2067 174.862 74.2396 174.979 74.2773C175.091 74.3149 175.189 74.3525 175.264 74.3948C175.344 74.4372 175.405 74.4748 175.447 74.5077C175.489 74.5406 175.512 74.5689 175.526 74.5877C175.54 74.6112 175.55 74.6394 175.554 74.6676C175.559 74.6958 175.568 74.7335 175.573 74.7758C175.578 74.8181 175.582 74.8746 175.582 74.9357C175.582 75.0016 175.582 75.0627 175.573 75.1097C175.568 75.1568 175.559 75.1991 175.545 75.2273C175.531 75.2602 175.517 75.2837 175.493 75.2979C175.475 75.312 175.451 75.3167 175.428 75.3167C175.391 75.3167 175.344 75.2931 175.274 75.2508C175.208 75.2085 175.124 75.1615 175.016 75.1144C174.913 75.0627 174.787 75.0204 174.646 74.978C174.506 74.9357 174.342 74.9122 174.16 74.9122C173.996 74.9122 173.851 74.931 173.729 74.9686C173.603 75.0063 173.505 75.058 173.425 75.1238C173.345 75.1897 173.285 75.2743 173.243 75.3684C173.2 75.4625 173.182 75.5612 173.182 75.6694C173.182 75.8199 173.219 75.9516 173.299 76.0551C173.378 76.1585 173.477 76.2479 173.598 76.3278C173.72 76.4078 173.865 76.4784 174.024 76.5395C174.183 76.6006 174.342 76.6665 174.506 76.7323C174.67 76.8029 174.834 76.8734 174.993 76.9581C175.152 77.0427 175.297 77.1415 175.419 77.2591C175.545 77.3767 175.643 77.5178 175.718 77.6824C175.812 77.8376 175.849 78.0351 175.849 78.2609Z" fill="black"/>
</g>
<defs>
<clipPath id="clip0_514_1761">
<rect width="241" height="82" fill="white"/>
</clipPath>
</defs>
</svg>
