<svg width="70" height="70" viewBox="0 0 70 70" fill="none" xmlns="http://www.w3.org/2000/svg">
<circle cx="35" cy="35" r="35" fill="black"/>
<path d="M38.7495 38.1776L38.1725 38.7521C38.1725 38.7521 36.7991 40.1165 33.0519 36.3908C29.3046 32.6651 30.678 31.3007 30.678 31.3007L31.0407 30.938C31.9372 30.0478 32.0222 28.6173 31.2398 27.5724L29.6419 25.4382C28.6731 24.1447 26.8027 23.9735 25.6931 25.0768L23.7021 27.055C23.153 27.6029 22.7853 28.3105 22.8297 29.0967C22.9438 31.1092 23.8543 35.4372 28.9318 40.4868C34.3175 45.8408 39.3709 46.0538 41.4366 45.8611C42.091 45.8002 42.6591 45.468 43.1169 45.0114L44.9176 43.2209C46.135 42.0124 45.7926 39.939 44.2353 39.0932L41.8132 37.7756C40.7911 37.2215 39.5484 37.3838 38.7495 38.1776Z" fill="#0096EA"/>
</svg>
