<svg width="70" height="70" viewBox="0 0 70 70" fill="none" xmlns="http://www.w3.org/2000/svg">
<circle cx="35" cy="35" r="35" fill="black"/>
<path d="M47.5074 27.2796C46.5166 27.73 45.4486 28.0259 44.3419 28.1675C45.4743 27.4855 46.3493 26.4046 46.7611 25.105C45.693 25.7483 44.5092 26.1987 43.2611 26.4561C42.2445 25.3494 40.8162 24.7061 39.1949 24.7061C36.171 24.7061 33.7004 27.1766 33.7004 30.2263C33.7004 30.6638 33.7519 31.0884 33.8419 31.4873C29.2611 31.2557 25.182 29.0553 22.4669 25.7226C21.9908 26.5333 21.7206 27.4855 21.7206 28.4891C21.7206 30.4064 22.6857 32.105 24.1783 33.07C23.2647 33.07 22.4155 32.8127 21.6691 32.4266V32.4652C21.6691 35.1417 23.5736 37.3807 26.0956 37.8825C25.2859 38.1041 24.4358 38.1349 23.6122 37.9726C23.9616 39.0695 24.6461 40.0294 25.5693 40.7172C26.4926 41.405 27.6081 41.7862 28.7592 41.8072C26.808 43.3518 24.3894 44.1868 21.9008 44.1748C21.4633 44.1748 21.0258 44.1491 20.5883 44.0976C23.0331 45.6675 25.9412 46.5811 29.0552 46.5811C39.1949 46.5811 44.7666 38.1656 44.7666 30.8697C44.7666 30.6252 44.7666 30.3936 44.7537 30.1491C45.8346 29.377 46.761 28.3991 47.5074 27.2796Z" fill="#0096EA"/>
</svg>
