<svg width="34" height="34" viewBox="0 0 34 34" fill="none" xmlns="http://www.w3.org/2000/svg">
<circle cx="17" cy="17" r="17" fill="black"/>
<mask id="mask0_779_2301" style="mask-type:luminance" maskUnits="userSpaceOnUse" x="9" y="9" width="15" height="15">
<path d="M9.77148 9.77148H23.2298V23.2298H9.77148V9.77148Z" fill="white"/>
</mask>
<g mask="url(#mask0_779_2301)">
<path d="M17.7686 9.87109L17.3648 9.81442C16.1514 9.63922 14.9132 9.81255 13.7945 10.3142C12.6758 10.8158 11.7228 11.6252 11.0465 12.6478C10.3269 13.6252 9.89798 14.786 9.80901 15.9965C9.72004 17.207 9.97466 18.4181 10.5436 19.4903C10.6018 19.5977 10.638 19.7157 10.6502 19.8373C10.6624 19.9589 10.6502 20.0817 10.6144 20.1986C10.324 21.1973 10.0548 22.2032 9.77148 23.2586L10.1257 23.1523C11.0819 22.8973 12.0382 22.6423 12.9944 22.4086C13.1962 22.3666 13.406 22.3864 13.5965 22.4653C14.4544 22.884 15.392 23.1143 16.3463 23.1409C17.3006 23.1674 18.2495 22.9895 19.1294 22.6191C20.0092 22.2487 20.7997 21.6944 21.4477 20.9934C22.0957 20.2924 22.5863 19.4609 22.8865 18.5546C23.1867 17.6484 23.2896 16.6885 23.1883 15.7392C23.087 14.79 22.7838 13.8733 22.299 13.0509C21.8143 12.2285 21.1593 11.5192 20.3779 10.9708C19.5965 10.4224 18.7068 10.0474 17.7686 9.87109ZM19.5536 19.1644C19.2961 19.3949 18.9822 19.553 18.6438 19.6227C18.3053 19.6924 17.9544 19.6711 17.6269 19.5611C16.1426 19.1431 14.8549 18.2119 13.9932 16.9332C13.664 16.4809 13.3994 15.9851 13.2069 15.4598C13.1027 15.1551 13.0839 14.8276 13.1526 14.513C13.2212 14.1983 13.3748 13.9084 13.5965 13.6748C13.7044 13.5371 13.8514 13.435 14.0181 13.382C14.1849 13.3289 14.3638 13.3273 14.5315 13.3773C14.6732 13.4128 14.7723 13.6182 14.8998 13.774C15.0032 14.0665 15.1244 14.3527 15.2611 14.6311C15.3648 14.7731 15.4081 14.9504 15.3816 15.1243C15.355 15.2981 15.2608 15.4544 15.1194 15.559C14.8007 15.8423 14.8502 16.0761 15.0769 16.3948C15.578 17.1167 16.2695 17.6856 17.0744 18.0382C17.3011 18.1373 17.4711 18.1586 17.6198 17.9248C17.6836 17.8328 17.7686 17.7548 17.8394 17.6698C18.2502 17.1528 18.1227 17.1598 18.7744 17.4432C18.9819 17.5303 19.1831 17.6323 19.3765 17.7478C19.5677 17.8611 19.8582 17.9815 19.9007 18.1515C19.9415 18.3359 19.9308 18.5281 19.8695 18.7068C19.8083 18.8855 19.699 19.0438 19.5536 19.1644Z" fill="#0096EA"/>
</g>
</svg>
