<svg width="70" height="70" viewBox="0 0 70 70" fill="none" xmlns="http://www.w3.org/2000/svg">
<circle cx="35" cy="35" r="35" fill="black"/>
<path d="M32.9412 39.6323L39.6195 35.772L32.9412 31.9117V39.6323ZM47.8162 29.5569C47.9834 30.1617 48.0992 30.9724 48.1764 32.0018C48.2665 33.0312 48.3051 33.9191 48.3051 34.6911L48.3823 35.772C48.3823 38.59 48.1764 40.6617 47.8162 41.9871C47.4945 43.1452 46.7481 43.8915 45.59 44.2132C44.9853 44.3805 43.8787 44.4963 42.1801 44.5735C40.5073 44.6635 38.9761 44.7021 37.5606 44.7021L35.5147 44.7794C30.1231 44.7794 26.7647 44.5735 25.4393 44.2132C24.2812 43.8915 23.5349 43.1452 23.2132 41.9871C23.0459 41.3823 22.9301 40.5716 22.8529 39.5422C22.7628 38.5128 22.7242 37.6249 22.7242 36.8529L22.647 35.772C22.647 32.954 22.8529 30.8823 23.2132 29.5569C23.5349 28.3988 24.2812 27.6525 25.4393 27.3308C26.0441 27.1635 27.1507 27.0477 28.8492 26.9705C30.522 26.8805 32.0533 26.8419 33.4687 26.8419L35.5147 26.7646C40.9062 26.7646 44.2647 26.9705 45.59 27.3308C46.7481 27.6525 47.4945 28.3988 47.8162 29.5569Z" fill="#0096EA"/>
</svg>
