<svg width="313" height="18" viewBox="0 0 313 18" fill="none" xmlns="http://www.w3.org/2000/svg">
<path d="M0 1C4.2288 1.01719 4.22554 15.9116 8.45435 15.923C12.6848 15.9402 12.688 1.04583 16.9185 1.05729C21.1473 1.07447 21.144 15.9689 25.3728 15.9803C29.6016 15.9975 29.6065 1.10311 33.837 1.11457C38.0658 1.13176 38.0625 16.0261 42.2913 16.0376C46.5201 16.0548 46.525 1.1604 50.7554 1.17186C54.9859 1.18904 54.981 16.0834 59.2098 16.0949C63.4402 16.1121 63.4435 1.21769 67.6739 1.22914C71.9043 1.24633 71.8995 16.1407 76.1283 16.1522C80.3587 16.1694 80.362 1.27497 84.5924 1.28643C88.8228 1.30362 88.8179 16.198 93.0467 16.2095C97.2755 16.2266 97.2804 1.33226 101.511 1.34372C105.741 1.3609 105.736 16.2553 109.965 16.2667C114.196 16.2839 114.199 1.38955 118.429 1.401C122.66 1.41819 122.655 16.3126 126.884 16.324C131.114 16.3412 131.117 1.44683 135.348 1.45829C139.578 1.47547 139.573 16.3699 143.802 16.3813C148.033 16.3985 148.036 1.50412 152.266 1.51557C156.498 1.57286 156.493 16.4672 160.724 16.4844C164.954 16.5016 164.958 1.60723 169.188 1.61869C173.417 1.63588 173.414 16.5303 177.642 16.5417C181.873 16.5589 181.876 1.66452 186.107 1.67598C190.335 1.69316 190.332 16.5875 194.561 16.599C198.791 16.6162 198.795 1.7218 203.025 1.73326C207.254 1.75045 207.251 16.6448 211.479 16.6563C215.71 16.6735 215.713 1.77909 219.943 1.79055C224.174 1.80773 224.169 16.7021 228.398 16.7136C232.628 16.7308 232.632 1.83638 236.862 1.84783C241.092 1.86502 241.088 16.7594 245.318 16.7709C249.548 16.788 249.552 1.89366 253.782 1.90512C258.012 1.92231 258.008 16.8167 262.238 16.8281C266.468 16.8453 266.472 1.95095 270.702 1.96241C274.933 1.97959 274.928 16.874 279.158 16.8854C283.389 16.9026 283.392 2.00823 287.622 2.01969C291.853 2.03688 291.848 16.9313 296.078 16.9427C300.309 16.9599 300.314 2.06552 304.544 2.07698C308.774 2.09416 308.77 16.9885 313 17" stroke="black" stroke-width="2" stroke-miterlimit="10"/>
</svg>
